# xmcd CD database file
#
# Track frame offsets:
#	180
#	18689
#	34601
#	51038
#	71123
#	86836
#	100916
#	120150
#	139186
#	155599
#	171338
#	187630
#	204490
#	220179
#	238071
#	255142
#
# Disc length: 3641 seconds
#
# Revision: 1
# Processed by: cddbd v1.5.1PL0 Copyright (c) Steve Scherf et al.
# Submitted via: CDex 1.51
#
DISCID=d60e3710
DTITLE=Bandari - Reflections CD4
DYEAR=2000
DGENRE=New Age
TTITLE0=Mandy´s Song
TTITLE1=Siderial Hour
TTITLE2=Magic Winds
TTITLE3=Endless Horizon
TTITLE4=The Writer Song
TTITLE5=Song Of The Mayas
TTITLE6=Alone In The Night
TTITLE7=In The Air
TTITLE8=Xenon
TTITLE9=Silver Valley
TTITLE10=Lanterna Magica
TTITLE11=Blue
TTITLE12=Indian Dreams
TTITLE13=Moments Of Love
TTITLE14=Morning Air
TTITLE15=Dreamin´
EXTD=YEAR: 2000
EXTT0=
EXTT1=
EXTT2=
EXTT3=
EXTT4=
EXTT5=
EXTT6=
EXTT7=
EXTT8=
EXTT9=
EXTT10=
EXTT11=
EXTT12=
EXTT13=
EXTT14=
EXTT15=
PLAYORDER=
